<svg xmlns="http://www.w3.org/2000/svg" width="169.467" height="121.139" viewBox="0 0 169.467 121.139">
  <g id="Grupo_1459" data-name="Grupo 1459" transform="translate(0 -73.009)">
    <path id="Caminho_1788" data-name="Caminho 1788" d="M169.01,144.749,158.539,121.9v-6.86A42.044,42.044,0,0,0,97.956,77.317a42.031,42.031,0,0,0-37.07,0,41.775,41.775,0,0,0-18.521-4.308A42.249,42.249,0,0,0,0,115.043c0,14.521,4.737,22.238,8.543,28.438,2.919,4.754,5.027,8.188,5.027,13.927v31.774a4.965,4.965,0,0,0,4.965,4.965h116.5A4.965,4.965,0,0,0,140,189.183v-13.57h13.57a4.965,4.965,0,0,0,4.965-4.965V151.782H164.5A4.967,4.967,0,0,0,169.01,144.749Zm-57.47-29.705v7.943a4.961,4.961,0,0,0,.428,2.016l7.489,16.849H116.5a4.965,4.965,0,0,0-4.965,4.965v18.866H97.97a4.965,4.965,0,0,0-4.965,4.965v13.57H65.865v-8.605h13.57a4.965,4.965,0,0,0,4.965-4.965V151.782h5.627a4.968,4.968,0,0,0,4.537-6.981L84.4,121.933v-6.89A41.929,41.929,0,0,0,70.8,84.12,32.136,32.136,0,0,1,111.54,115.043ZM17.005,138.287c-3.479-5.667-7.076-11.527-7.076-23.243a32.271,32.271,0,0,1,64.541,0v7.943A4.961,4.961,0,0,0,74.9,125l7.489,16.849H79.435a4.965,4.965,0,0,0-4.965,4.965v18.866H60.9a4.965,4.965,0,0,0-4.965,4.965v13.57H23.5V157.409C23.5,148.865,20.2,143.487,17.005,138.287Zm136.569,3.566a4.965,4.965,0,0,0-4.965,4.965v18.866h-13.57a4.965,4.965,0,0,0-4.965,4.965v13.57h-27.14v-8.605H116.5a4.965,4.965,0,0,0,4.965-4.965V151.782H127.1a4.968,4.968,0,0,0,4.537-6.981l-10.163-22.868v-6.89A41.929,41.929,0,0,0,107.875,84.12a32.136,32.136,0,0,1,40.735,30.923v7.943a4.964,4.964,0,0,0,.451,2.069l7.7,16.8Z" fill="#0d3c5c"/>
  </g>
</svg>
